<?xml version="1.0" encoding="UTF-8"?>
<!DOCTYPE svg PUBLIC "-//W3C//DTD SVG 1.1//EN" "http://www.w3.org/Graphics/SVG/1.1/DTD/svg11.dtd">
<svg xmlns="http://www.w3.org/2000/svg" version="1.1" width="1024px" height="1024px" style="shape-rendering:geometricPrecision; text-rendering:geometricPrecision; image-rendering:optimizeQuality; fill-rule:evenodd; clip-rule:evenodd" xmlns:xlink="http://www.w3.org/1999/xlink">
<g><path style="opacity:1" fill="#fcfdfe" d="M -0.5,-0.5 C 340.833,-0.5 682.167,-0.5 1023.5,-0.5C 1023.5,340.833 1023.5,682.167 1023.5,1023.5C 682.167,1023.5 340.833,1023.5 -0.5,1023.5C -0.5,1022.17 -0.5,1020.83 -0.5,1019.5C 0.301916,1018.05 0.801916,1016.38 1,1014.5C 1.5,1015 2,1015.5 2.5,1016C 1.66337,1017.01 1.33003,1018.18 1.5,1019.5C 2.83333,1019.5 4.16667,1019.5 5.5,1019.5C 5.28649,1017.86 5.61983,1016.36 6.5,1015C 5.38256,1013.11 3.71589,1012.27 1.5,1012.5C 0.83602,680.354 0.169354,348.354 -0.5,16.5C -0.5,10.8333 -0.5,5.16667 -0.5,-0.5 Z"/></g>
<g><path style="opacity:1" fill="#f7fafb" d="M -0.5,16.5 C 0.169354,348.354 0.83602,680.354 1.5,1012.5C 3.71589,1012.27 5.38256,1013.11 6.5,1015C 5.61983,1016.36 5.28649,1017.86 5.5,1019.5C 4.16667,1019.5 2.83333,1019.5 1.5,1019.5C 1.33003,1018.18 1.66337,1017.01 2.5,1016C 2,1015.5 1.5,1015 1,1014.5C 0.801916,1016.38 0.301916,1018.05 -0.5,1019.5C -0.5,685.167 -0.5,350.833 -0.5,16.5 Z"/></g>
<g><path style="opacity:1" fill="#cce9f2" d="M 588.5,235.5 C 591.152,235.41 593.485,236.076 595.5,237.5C 592.848,237.59 590.515,236.924 588.5,235.5 Z"/></g>
<g><path style="opacity:1" fill="#4aa5c2" d="M 588.5,235.5 C 590.515,236.924 592.848,237.59 595.5,237.5C 687.502,268.309 748.002,330.309 777,423.5C 784.845,452.63 788.345,482.297 787.5,512.5C 786.435,519.317 785.768,526.317 785.5,533.5C 783.975,542.668 782.642,552.001 781.5,561.5C 779.75,566.615 778.416,571.949 777.5,577.5C 776.076,579.515 775.41,581.848 775.5,584.5C 767.483,610.867 755.483,635.2 739.5,657.5C 738.596,656.791 738.263,655.791 738.5,654.5C 741.303,642.762 744.303,631.095 747.5,619.5C 748.924,617.485 749.59,615.152 749.5,612.5C 751.953,601.639 755.12,590.972 759,580.5C 762.251,562.825 762.251,545.159 759,527.5C 757.763,520.95 755.263,514.95 751.5,509.5C 749.953,514.78 748.62,520.113 747.5,525.5C 746.833,523.167 746.167,520.833 745.5,518.5C 742.585,495.835 732.252,477.335 714.5,463C 687.858,446.851 672.192,423.351 667.5,392.5C 666.376,385.716 665.376,379.049 664.5,372.5C 664.06,365.084 663.06,357.751 661.5,350.5C 661.59,347.848 660.924,345.515 659.5,343.5C 656.88,335.596 652.714,328.596 647,322.5C 646.43,289.835 631.264,267.002 601.5,254C 588.652,248.455 575.319,245.121 561.5,244C 569.265,249.761 576.431,256.261 583,263.5C 592.668,275.333 602.502,286.999 612.5,298.5C 612.5,299.167 612.167,299.5 611.5,299.5C 608.56,298.798 605.727,297.798 603,296.5C 612.687,320.373 620.187,345.04 625.5,370.5C 626.01,373.388 625.344,375.721 623.5,377.5C 621.14,374.794 618.473,372.294 615.5,370C 609.568,367.691 603.734,365.191 598,362.5C 599.115,346.232 593.281,333.065 580.5,323C 577.328,321.248 574.328,319.248 571.5,317C 558.459,311.74 545.125,307.407 531.5,304C 514.011,291.92 495.344,281.92 475.5,274C 456.155,267.418 436.488,265.918 416.5,269.5C 413.848,269.41 411.515,270.076 409.5,271.5C 399.596,273.622 390.596,277.622 382.5,283.5C 381.244,283.461 380.244,283.961 379.5,285C 382.039,285.796 384.372,285.629 386.5,284.5C 397.843,284.58 409.176,284.913 420.5,285.5C 421.833,286.167 423.167,286.833 424.5,287.5C 404.837,291.831 387.504,300.664 372.5,314C 361.937,324.067 351.271,333.901 340.5,343.5C 337.631,346.512 336.298,345.845 336.5,341.5C 337.132,332.161 337.798,322.828 338.5,313.5C 339.803,310.645 339.803,307.645 338.5,304.5C 337.893,304.624 337.56,304.957 337.5,305.5C 328.87,317.087 322.037,329.753 317,343.5C 313.859,358.802 313.692,374.136 316.5,389.5C 315.504,389.586 314.671,389.252 314,388.5C 313.503,391.146 313.336,393.813 313.5,396.5C 312.368,393.372 311.535,390.038 311,386.5C 310.102,373.846 309.435,361.179 309,348.5C 295.432,370.354 289.765,394.02 292,419.5C 296.175,438.83 307.342,452.163 325.5,459.5C 324.926,454.817 324.26,450.15 323.5,445.5C 324.688,446.684 325.855,446.684 327,445.5C 327.494,443.866 327.66,442.199 327.5,440.5C 329.797,450.576 331.631,460.909 333,471.5C 333.714,474.595 334.714,477.595 336,480.5C 338.63,484.132 341.63,487.465 345,490.5C 353.857,503.882 360.857,518.215 366,533.5C 386.251,572.59 416.751,600.256 457.5,616.5C 457.158,617.338 456.492,617.672 455.5,617.5C 441.89,615.339 428.223,613.506 414.5,612C 405.884,610.277 398.717,606.11 393,599.5C 387.667,590.167 382.333,580.833 377,571.5C 370.123,561.623 361.623,553.456 351.5,547C 343.771,542.805 336.105,538.638 328.5,534.5C 334.455,533.654 340.289,534.32 346,536.5C 347.307,535.228 348.807,534.228 350.5,533.5C 349.446,531.799 348.446,530.132 347.5,528.5C 348.833,529.167 350.167,529.833 351.5,530.5C 355.1,532.92 358.6,535.586 362,538.5C 361.396,533.853 359.896,529.52 357.5,525.5C 350.026,503.878 337.359,486.044 319.5,472C 308.997,465.583 298.663,458.916 288.5,452C 277.952,441.362 273.119,428.529 274,413.5C 277.69,393.116 285.023,374.116 296,356.5C 337.977,286.545 399.143,244.045 479.5,229C 516.31,223.938 552.643,226.105 588.5,235.5 Z"/></g>
<g><path style="opacity:1" fill="#e2f4f9" d="M 449.5,245.5 C 448.791,246.404 447.791,246.737 446.5,246.5C 446.5,247.833 446.5,249.167 446.5,250.5C 447.791,250.263 448.791,250.596 449.5,251.5C 431.036,249.953 431.036,247.953 449.5,245.5 Z"/></g>
<g><path style="opacity:1" fill="#f9fcfc" d="M 449.5,251.5 C 448.791,250.596 447.791,250.263 446.5,250.5C 446.5,249.167 446.5,247.833 446.5,246.5C 447.791,246.737 448.791,246.404 449.5,245.5C 520.569,234.782 572.069,261.449 604,325.5C 606.616,331.952 607.616,338.619 607,345.5C 598.143,334.831 587.976,325.665 576.5,318C 550.019,304.598 524.353,289.931 499.5,274C 483.386,265.107 466.72,257.607 449.5,251.5 Z"/></g>
<g><path style="opacity:1" fill="#fbfcfd" d="M 623.5,377.5 C 629.24,386.073 630.907,395.407 628.5,405.5C 625.173,424.198 628.34,441.865 638,458.5C 646.574,468.64 653.907,479.64 660,491.5C 667.508,513.624 669.508,536.29 666,559.5C 663.44,580.82 655.606,599.82 642.5,616.5C 641.833,610.5 641.167,604.5 640.5,598.5C 640.818,593.968 640.485,589.634 639.5,585.5C 639.581,576.628 638.915,567.961 637.5,559.5C 637.638,554.586 636.972,549.919 635.5,545.5C 631.932,522.962 625.432,501.295 616,480.5C 615,479.167 614,479.167 613,480.5C 611.422,485.978 609.922,491.478 608.5,497C 622.286,512.997 630.952,531.497 634.5,552.5C 634.5,560.167 634.5,567.833 634.5,575.5C 634.092,580.537 633.426,585.537 632.5,590.5C 612.349,671.13 560.682,714.964 477.5,722C 441.168,725.998 407.501,718.498 376.5,699.5C 385.5,698.833 394.5,698.167 403.5,697.5C 410.51,697.332 417.51,696.999 424.5,696.5C 428.514,696.666 432.514,696.499 436.5,696C 442.176,695.022 447.509,693.188 452.5,690.5C 481.554,683.644 509.888,674.477 537.5,663C 559.161,653 578.328,639.5 595,622.5C 604.29,611.256 610.956,598.589 615,584.5C 617.441,563.979 610.941,546.979 595.5,533.5C 588.56,543.776 581.227,553.776 573.5,563.5C 553.862,585.805 530.528,603.138 503.5,615.5C 494.508,618.903 485.175,620.236 475.5,619.5C 469.256,619.746 463.256,618.746 457.5,616.5C 416.751,600.256 386.251,572.59 366,533.5C 360.857,518.215 353.857,503.882 345,490.5C 341.63,487.465 338.63,484.132 336,480.5C 334.714,477.595 333.714,474.595 333,471.5C 331.631,460.909 329.797,450.576 327.5,440.5C 326.985,432.741 325.818,425.075 324,417.5C 320.871,408.318 318.371,398.984 316.5,389.5C 313.692,374.136 313.859,358.802 317,343.5C 322.037,329.753 328.87,317.087 337.5,305.5C 338.473,307.948 338.806,310.615 338.5,313.5C 337.798,322.828 337.132,332.161 336.5,341.5C 335.539,343.265 335.205,345.265 335.5,347.5C 331.453,364.19 328.119,381.023 325.5,398C 324.962,406.593 328.296,413.093 335.5,417.5C 335.422,404.425 335.922,391.092 337,377.5C 338.014,369.638 341.514,363.138 347.5,358C 352.35,354.637 357.017,351.137 361.5,347.5C 369.516,342.665 376.849,336.832 383.5,330C 391.86,325.488 400.194,320.988 408.5,316.5C 409.289,316.217 409.956,315.717 410.5,315C 407.961,314.204 405.628,314.371 403.5,315.5C 389.34,320.419 377.34,328.586 367.5,340C 364.051,341.749 360.717,343.583 357.5,345.5C 356.167,345.5 354.833,345.5 353.5,345.5C 348.706,346.097 344.373,345.43 340.5,343.5C 351.271,333.901 361.937,324.067 372.5,314C 387.504,300.664 404.837,291.831 424.5,287.5C 426.199,287.66 427.866,287.494 429.5,287C 426.607,285.851 423.607,285.351 420.5,285.5C 409.176,284.913 397.843,284.58 386.5,284.5C 384.901,284.768 383.568,284.434 382.5,283.5C 390.596,277.622 399.596,273.622 409.5,271.5C 412.152,271.59 414.485,270.924 416.5,269.5C 436.488,265.918 456.155,267.418 475.5,274C 495.344,281.92 514.011,291.92 531.5,304C 545.125,307.407 558.459,311.74 571.5,317C 574.328,319.248 577.328,321.248 580.5,323C 593.281,333.065 599.115,346.232 598,362.5C 603.734,365.191 609.568,367.691 615.5,370C 618.473,372.294 621.14,374.794 623.5,377.5 Z"/></g>
<g><path style="opacity:1" fill="#cae7f0" d="M 416.5,269.5 C 414.485,270.924 412.152,271.59 409.5,271.5C 411.515,270.076 413.848,269.41 416.5,269.5 Z"/></g>
<g><path style="opacity:1" fill="#b9e4f1" d="M 382.5,283.5 C 383.568,284.434 384.901,284.768 386.5,284.5C 384.372,285.629 382.039,285.796 379.5,285C 380.244,283.961 381.244,283.461 382.5,283.5 Z"/></g>
<g><path style="opacity:1" fill="#b6d7e3" d="M 420.5,285.5 C 423.607,285.351 426.607,285.851 429.5,287C 427.866,287.494 426.199,287.66 424.5,287.5C 423.167,286.833 421.833,286.167 420.5,285.5 Z"/></g>
<g><path style="opacity:1" fill="#f9fbfc" d="M 660.5,282.5 C 686.676,309.171 710.843,337.505 733,367.5C 746.741,387.606 758.408,408.94 768,431.5C 768.667,433.167 768.667,434.833 768,436.5C 747.737,419.574 728.07,401.907 709,383.5C 692.816,364.145 680.483,342.478 672,318.5C 667.858,306.574 664.024,294.574 660.5,282.5 Z"/></g>
<g><path style="opacity:1" fill="#8dc4d7" d="M 475.5,293.5 C 472.941,293.198 470.607,293.532 468.5,294.5C 467.957,294.44 467.624,294.107 467.5,293.5C 470.309,292.2 472.976,292.2 475.5,293.5 Z"/></g>
<g><path style="opacity:1" fill="#4fa4c2" d="M 475.5,293.5 C 486.513,297.505 495.18,304.505 501.5,314.5C 501.5,314.833 501.5,315.167 501.5,315.5C 490.745,308.071 479.745,301.071 468.5,294.5C 470.607,293.532 472.941,293.198 475.5,293.5 Z"/></g>
<g><path style="opacity:1" fill="#94c5cd" d="M 612.5,298.5 C 613.289,298.783 613.956,299.283 614.5,300C 613.251,300.74 612.251,300.573 611.5,299.5C 612.167,299.5 612.5,299.167 612.5,298.5 Z"/></g>
<g><path style="opacity:1" fill="#9fcad7" d="M 337.5,305.5 C 337.56,304.957 337.893,304.624 338.5,304.5C 339.803,307.645 339.803,310.645 338.5,313.5C 338.806,310.615 338.473,307.948 337.5,305.5 Z"/></g>
<g><path style="opacity:1" fill="#92c3d2" d="M 403.5,315.5 C 405.628,314.371 407.961,314.204 410.5,315C 409.956,315.717 409.289,316.217 408.5,316.5C 407.081,315.549 405.415,315.216 403.5,315.5 Z"/></g>
<g><path style="opacity:1" fill="#abc9cf" d="M 501.5,314.5 C 503.446,315.254 504.279,316.588 504,318.5C 502.955,317.627 502.122,316.627 501.5,315.5C 501.5,315.167 501.5,314.833 501.5,314.5 Z"/></g>
<g><path style="opacity:1" fill="#c9dce1" d="M 511.5,324.5 C 510.833,324.5 510.5,324.833 510.5,325.5C 508.554,324.746 507.721,323.412 508,321.5C 509.518,322.163 510.685,323.163 511.5,324.5 Z"/></g>
<g><path style="opacity:1" fill="#5da9c3" d="M 510.5,325.5 C 510.5,324.833 510.833,324.5 511.5,324.5C 521.712,330.604 532.712,333.938 544.5,334.5C 539.151,334.145 533.818,333.978 528.5,334C 529.167,334.333 529.833,334.667 530.5,335C 529.289,335.893 529.289,336.726 530.5,337.5C 538.505,340.28 546.838,341.28 555.5,340.5C 551.366,341.485 547.032,341.818 542.5,341.5C 529.994,339.914 519.328,334.58 510.5,325.5 Z"/></g>
<g><path style="opacity:1" fill="#58a7be" d="M 403.5,315.5 C 405.415,315.216 407.081,315.549 408.5,316.5C 400.194,320.988 391.86,325.488 383.5,330C 376.849,336.832 369.516,342.665 361.5,347.5C 360.817,345.824 359.483,345.157 357.5,345.5C 360.717,343.583 364.051,341.749 367.5,340C 377.34,328.586 389.34,320.419 403.5,315.5 Z"/></g>
<g><path style="opacity:1" fill="#4ba7c7" d="M 544.5,334.5 C 550.689,334.55 556.689,335.55 562.5,337.5C 563.953,338.825 563.619,339.658 561.5,340C 559.527,340.495 557.527,340.662 555.5,340.5C 546.838,341.28 538.505,340.28 530.5,337.5C 529.289,336.726 529.289,335.893 530.5,335C 529.833,334.667 529.167,334.333 528.5,334C 533.818,333.978 539.151,334.145 544.5,334.5 Z"/></g>
<g><path style="opacity:1" fill="#d8f0f7" d="M 562.5,337.5 C 566.4,338.664 566.4,339.997 562.5,341.5C 555.678,342.818 549.011,342.818 542.5,341.5C 547.032,341.818 551.366,341.485 555.5,340.5C 557.527,340.662 559.527,340.495 561.5,340C 563.619,339.658 563.953,338.825 562.5,337.5 Z"/></g>
<g><path style="opacity:1" fill="#d9f2f8" d="M 336.5,341.5 C 336.298,345.845 337.631,346.512 340.5,343.5C 344.373,345.43 348.706,346.097 353.5,345.5C 347.601,346.205 341.601,346.872 335.5,347.5C 335.205,345.265 335.539,343.265 336.5,341.5 Z"/></g>
<g><path style="opacity:1" fill="#b6dbe5" d="M 659.5,343.5 C 660.924,345.515 661.59,347.848 661.5,350.5C 660.076,348.485 659.41,346.152 659.5,343.5 Z"/></g>
<g><path style="opacity:1" fill="#f7fbfc" d="M 313.5,396.5 C 315.007,406.86 316.673,417.193 318.5,427.5C 318.41,430.152 319.076,432.485 320.5,434.5C 321.387,438.1 322.387,441.767 323.5,445.5C 324.26,450.15 324.926,454.817 325.5,459.5C 307.342,452.163 296.175,438.83 292,419.5C 289.765,394.02 295.432,370.354 309,348.5C 309.435,361.179 310.102,373.846 311,386.5C 311.535,390.038 312.368,393.372 313.5,396.5 Z"/></g>
<g><path style="opacity:1" fill="#4da5c3" d="M 353.5,345.5 C 354.833,345.5 356.167,345.5 357.5,345.5C 359.483,345.157 360.817,345.824 361.5,347.5C 357.017,351.137 352.35,354.637 347.5,358C 341.514,363.138 338.014,369.638 337,377.5C 335.922,391.092 335.422,404.425 335.5,417.5C 328.296,413.093 324.962,406.593 325.5,398C 328.119,381.023 331.453,364.19 335.5,347.5C 341.601,346.872 347.601,346.205 353.5,345.5 Z"/></g>
<g><path style="opacity:1" fill="#5dabc6" d="M 440.5,394.5 C 440.5,395.167 440.167,395.5 439.5,395.5C 423.369,383.288 405.202,376.288 385,374.5C 378.87,374.123 373.037,375.123 367.5,377.5C 367.5,376.167 366.833,375.5 365.5,375.5C 378.018,369.75 391.018,368.916 404.5,373C 418.572,376.862 430.572,384.029 440.5,394.5 Z"/></g>
<g><path style="opacity:1" fill="#61a9c0" d="M 625.5,370.5 C 628.298,380.687 630.964,391.021 633.5,401.5C 632.504,401.586 631.671,401.252 631,400.5C 630.626,402.491 629.793,404.158 628.5,405.5C 630.907,395.407 629.24,386.073 623.5,377.5C 625.344,375.721 626.01,373.388 625.5,370.5 Z"/></g>
<g><path style="opacity:1" fill="#5aa8c0" d="M 561.5,374.5 C 558.505,374.294 555.838,374.96 553.5,376.5C 538.031,380.067 524.365,387.067 512.5,397.5C 512.167,397.333 511.833,397.167 511.5,397C 528.775,376.707 550.775,368.041 577.5,371C 589.429,371.715 599.262,376.548 607,385.5C 608.187,387.044 608.52,388.711 608,390.5C 595.679,376.397 580.179,371.063 561.5,374.5 Z"/></g>
<g><path style="opacity:1" fill="#bfe2ef" d="M 561.5,374.5 C 559.095,375.768 556.428,376.435 553.5,376.5C 555.838,374.96 558.505,374.294 561.5,374.5 Z"/></g>
<g><path style="opacity:1" fill="#dbf1f5" d="M 664.5,372.5 C 665.376,379.049 666.376,385.716 667.5,392.5C 664.966,386.202 663.966,379.536 664.5,372.5 Z"/></g>
<g><path style="opacity:1" fill="#5ca6b9" d="M 365.5,375.5 C 366.833,375.5 367.5,376.167 367.5,377.5C 360.272,380.56 354.772,385.56 351,392.5C 350.448,389.581 351.115,386.914 353,384.5C 356.227,380.093 360.394,377.093 365.5,375.5 Z"/></g>
<g><path style="opacity:1" fill="#f9fbfc" d="M 763.5,476.5 C 764.948,486.773 765.614,497.107 765.5,507.5C 765.657,508.873 765.49,510.207 765,511.5C 759.009,498.844 752.009,486.844 744,475.5C 729.949,457.784 716.283,439.784 703,421.5C 695.592,409.682 690.092,397.015 686.5,383.5C 686.667,382.833 686.833,382.167 687,381.5C 697.5,390 708,398.5 718.5,407C 737.676,422.503 751.842,441.669 761,464.5C 761.837,468.514 762.671,472.514 763.5,476.5 Z"/></g>
<g><path style="opacity:1" fill="#9dc5d2" d="M 440.5,394.5 C 442.446,395.254 443.279,396.588 443,398.5C 441.482,397.837 440.315,396.837 439.5,395.5C 440.167,395.5 440.5,395.167 440.5,394.5 Z"/></g>
<g><path style="opacity:1" fill="#58a8c2" d="M 235.5,449.5 C 234.819,447.842 233.985,446.175 233,444.5C 232.667,436.833 232.333,429.167 232,421.5C 231.056,420.737 230.556,419.737 230.5,418.5C 231.047,416.631 231.38,414.798 231.5,413C 231.167,412.5 230.833,412 230.5,411.5C 228.673,415.311 227.506,419.311 227,423.5C 225.595,424.731 224.429,426.064 223.5,427.5C 226.88,409.858 234.38,394.192 246,380.5C 240.636,392.261 236.636,404.594 234,417.5C 233.186,428.237 233.686,438.904 235.5,449.5 Z"/></g>
<g><path style="opacity:1" fill="#4a9fbe" d="M 316.5,389.5 C 318.371,398.984 320.871,408.318 324,417.5C 325.818,425.075 326.985,432.741 327.5,440.5C 327.66,442.199 327.494,443.866 327,445.5C 325.855,446.684 324.688,446.684 323.5,445.5C 322.387,441.767 321.387,438.1 320.5,434.5C 320.59,431.848 319.924,429.515 318.5,427.5C 316.673,417.193 315.007,406.86 313.5,396.5C 313.336,393.813 313.503,391.146 314,388.5C 314.671,389.252 315.504,389.586 316.5,389.5 Z"/></g>
<g><path style="opacity:1" fill="#c7e5ed" d="M 318.5,427.5 C 319.924,429.515 320.59,431.848 320.5,434.5C 319.076,432.485 318.41,430.152 318.5,427.5 Z"/></g>
<g><path style="opacity:1" fill="#8dc4d1" d="M 435.5,436.5 C 436.289,436.783 436.956,437.283 437.5,438C 434.518,438.498 431.518,438.665 428.5,438.5C 430.833,437.833 433.167,437.167 435.5,436.5 Z"/></g>
<g><path style="opacity:1" fill="#71b3c7" d="M 597.5,440.5 C 598.239,440.631 598.906,440.464 599.5,440C 596.216,436.176 592.216,435.342 587.5,437.5C 590.142,435.52 593.142,434.686 596.5,435C 599.833,438.333 603.167,441.667 606.5,445C 603.306,444.07 600.306,442.57 597.5,440.5 Z"/></g>
<g><path style="opacity:1" fill="#4ca5c2" d="M 435.5,436.5 C 433.167,437.167 430.833,437.833 428.5,438.5C 429.833,441.5 431.167,444.5 432.5,447.5C 432.737,448.791 432.404,449.791 431.5,450.5C 429.925,447.418 427.758,444.751 425,442.5C 425.255,445.082 425.422,447.748 425.5,450.5C 425.737,451.791 425.404,452.791 424.5,453.5C 423.687,450.342 422.02,447.676 419.5,445.5C 419.437,449.713 419.271,454.046 419,458.5C 417.979,456.03 416.812,453.696 415.5,451.5C 414.952,449.606 413.952,447.94 412.5,446.5C 411.516,449.428 411.183,452.428 411.5,455.5C 411.5,455.833 411.5,456.167 411.5,456.5C 410.833,457.5 410.167,458.5 409.5,459.5C 409.381,454.798 407.714,450.798 404.5,447.5C 403.52,450.086 403.187,452.753 403.5,455.5C 402.249,457.382 401.082,459.382 400,461.5C 399.819,458.305 399.319,455.305 398.5,452.5C 397.962,450.883 397.629,449.216 397.5,447.5C 396.5,447.5 395.5,447.5 394.5,447.5C 394.399,452.578 393.066,457.245 390.5,461.5C 389.833,456.5 389.167,451.5 388.5,446.5C 384.933,451.943 381.1,457.276 377,462.5C 378.649,457.194 380.149,451.694 381.5,446C 381.15,444.743 380.483,444.409 379.5,445C 376.919,448.088 373.919,450.588 370.5,452.5C 369.833,452.5 369.5,452.167 369.5,451.5C 371.408,448.688 373.075,445.688 374.5,442.5C 374.167,442.167 373.833,441.833 373.5,441.5C 368.265,445.776 362.599,448.943 356.5,451C 361.356,447.645 365.356,443.478 368.5,438.5C 368.167,438.167 367.833,437.833 367.5,437.5C 363.476,439.685 359.476,441.518 355.5,443C 358.167,440.333 360.833,437.667 363.5,435C 365.5,434.333 367.5,434.333 369.5,435C 383.918,441.489 398.918,443.155 414.5,440C 419.472,437.565 424.639,435.732 430,434.5C 432.221,434.393 434.054,435.06 435.5,436.5 Z"/></g>
<g><path style="opacity:1" fill="#4ba7c4" d="M 587.5,437.5 C 592.216,435.342 596.216,436.176 599.5,440C 598.906,440.464 598.239,440.631 597.5,440.5C 596.609,439.89 595.609,439.557 594.5,439.5C 593.791,438.596 592.791,438.263 591.5,438.5C 592.128,442.491 590.795,443.824 587.5,442.5C 586.624,442.369 585.957,442.702 585.5,443.5C 586.127,444.417 586.461,445.417 586.5,446.5C 587.028,447.847 587.195,449.181 587,450.5C 586.241,448.937 585.074,447.937 583.5,447.5C 582.185,446.524 580.852,445.524 579.5,444.5C 579.167,445.167 578.833,445.833 578.5,446.5C 580.021,451.282 581.521,455.949 583,460.5C 579.02,456.533 575.52,452.199 572.5,447.5C 571.516,450.428 571.183,453.428 571.5,456.5C 570.833,457.167 570.167,457.833 569.5,458.5C 568.169,455.187 566.836,451.853 565.5,448.5C 564.914,448.709 564.414,449.043 564,449.5C 563.505,451.473 563.338,453.473 563.5,455.5C 562.833,457.5 562.167,459.5 561.5,461.5C 561.233,459.035 560.566,456.701 559.5,454.5C 559.753,452.173 559.086,450.173 557.5,448.5C 556.702,448.957 556.369,449.624 556.5,450.5C 555.596,451.209 555.263,452.209 555.5,453.5C 554.076,455.515 553.41,457.848 553.5,460.5C 553.44,461.043 553.107,461.376 552.5,461.5C 551.52,458.914 551.187,456.247 551.5,453.5C 551.663,451.143 551.497,448.81 551,446.5C 550.283,447.044 549.783,447.711 549.5,448.5C 547.418,451.152 546.085,454.152 545.5,457.5C 544.834,453.979 544.167,450.313 543.5,446.5C 542.145,447.188 541.145,448.188 540.5,449.5C 539.559,451.05 538.893,452.716 538.5,454.5C 537.736,450.899 537.403,447.233 537.5,443.5C 535.389,444.605 534.055,446.271 533.5,448.5C 532.5,448.833 531.833,449.5 531.5,450.5C 531.046,448.741 531.046,446.741 531.5,444.5C 533.319,443.064 533.652,441.397 532.5,439.5C 529.518,438.602 526.518,438.435 523.5,439C 525.219,436.43 527.553,434.93 530.5,434.5C 537.636,437.49 544.969,439.99 552.5,442C 564.574,443.516 576.24,442.016 587.5,437.5 Z"/></g>
<g><path style="opacity:1" fill="#63b0c9" d="M 594.5,439.5 C 593.624,439.369 592.957,439.702 592.5,440.5C 594.435,443.938 596.935,446.938 600,449.5C 600.688,450.332 600.521,450.998 599.5,451.5C 595.074,448.966 591.074,445.966 587.5,442.5C 590.795,443.824 592.128,442.491 591.5,438.5C 592.791,438.263 593.791,438.596 594.5,439.5 Z"/></g>
<g><path style="opacity:1" fill="#d9ebf1" d="M 538.5,454.5 C 538.719,455.675 538.386,456.675 537.5,457.5C 536.828,454.103 535.995,450.77 535,447.5C 534.617,448.056 534.117,448.389 533.5,448.5C 534.055,446.271 535.389,444.605 537.5,443.5C 537.403,447.233 537.736,450.899 538.5,454.5 Z"/></g>
<g><path style="opacity:1" fill="#6bb3c9" d="M 586.5,446.5 C 588.829,448.841 590.829,451.508 592.5,454.5C 592.167,454.833 591.833,455.167 591.5,455.5C 587.896,453.712 585.23,451.045 583.5,447.5C 585.074,447.937 586.241,448.937 587,450.5C 587.195,449.181 587.028,447.847 586.5,446.5 Z"/></g>
<g><path style="opacity:1" fill="#daedf4" d="M 415.5,451.5 C 414.5,451.5 413.5,451.5 412.5,451.5C 412.768,453.099 412.434,454.432 411.5,455.5C 411.183,452.428 411.516,449.428 412.5,446.5C 413.952,447.94 414.952,449.606 415.5,451.5 Z"/></g>
<g><path style="opacity:1" fill="#95c5ce" d="M 432.5,447.5 C 433.629,449.628 433.796,451.961 433,454.5C 432.59,453.099 432.09,451.766 431.5,450.5C 432.404,449.791 432.737,448.791 432.5,447.5 Z"/></g>
<g><path style="opacity:1" fill="#96c9d8" d="M 551.5,453.5 C 550.833,451.833 550.167,450.167 549.5,448.5C 549.783,447.711 550.283,447.044 551,446.5C 551.497,448.81 551.663,451.143 551.5,453.5 Z"/></g>
<g><path style="opacity:1" fill="#84b7c8" d="M 531.5,444.5 C 531.046,446.741 531.046,448.741 531.5,450.5C 530.407,455.134 529.74,455.3 529.5,451C 529.497,448.516 530.163,446.349 531.5,444.5 Z"/></g>
<g><path style="opacity:1" fill="#cae8ed" d="M 388.5,446.5 C 389.167,451.5 389.833,456.5 390.5,461.5C 390.44,462.043 390.107,462.376 389.5,462.5C 388.505,457.208 388.172,451.875 388.5,446.5 Z"/></g>
<g><path style="opacity:1" fill="#8bbcca" d="M 369.5,451.5 C 369.5,452.167 369.833,452.5 370.5,452.5C 369.594,454.914 367.928,455.747 365.5,455C 366.705,453.624 368.038,452.458 369.5,451.5 Z"/></g>
<g><path style="opacity:1" fill="#b4d4da" d="M 425.5,450.5 C 426.793,452.364 426.793,454.364 425.5,456.5C 424.614,455.675 424.281,454.675 424.5,453.5C 425.404,452.791 425.737,451.791 425.5,450.5 Z"/></g>
<g><path style="opacity:1" fill="#bee2ed" d="M 559.5,454.5 C 558.857,452.924 557.857,451.59 556.5,450.5C 556.369,449.624 556.702,448.957 557.5,448.5C 559.086,450.173 559.753,452.173 559.5,454.5 Z"/></g>
<g><path style="opacity:1" fill="#b4dae2" d="M 545.5,457.5 C 545.44,458.043 545.107,458.376 544.5,458.5C 543.676,455.215 543.176,451.882 543,448.5C 542.329,449.252 541.496,449.586 540.5,449.5C 541.145,448.188 542.145,447.188 543.5,446.5C 544.167,450.313 544.834,453.979 545.5,457.5 Z"/></g>
<g><path style="opacity:1" fill="#ceecf2" d="M 398.5,452.5 C 399.319,455.305 399.819,458.305 400,461.5C 401.082,459.382 402.249,457.382 403.5,455.5C 403.983,459.577 402.316,461.91 398.5,462.5C 398.5,459.167 398.5,455.833 398.5,452.5 Z"/></g>
<g><path style="opacity:1" fill="#7ab6c3" d="M 571.5,456.5 C 572.637,459.32 573.137,462.32 573,465.5C 571.807,463.114 570.64,460.78 569.5,458.5C 570.167,457.833 570.833,457.167 571.5,456.5 Z"/></g>
<g><path style="opacity:1" fill="#a9cbd8" d="M 411.5,456.5 C 411.762,457.978 411.429,459.311 410.5,460.5C 409.893,460.376 409.56,460.043 409.5,459.5C 410.167,458.5 410.833,457.5 411.5,456.5 Z"/></g>
<g><path style="opacity:1" fill="#c5e6ea" d="M 555.5,453.5 C 555.59,456.152 554.924,458.485 553.5,460.5C 553.41,457.848 554.076,455.515 555.5,453.5 Z"/></g>
<g><path style="opacity:1" fill="#b9dbe2" d="M 563.5,455.5 C 563.813,458.247 563.48,460.914 562.5,463.5C 561.702,463.043 561.369,462.376 561.5,461.5C 562.167,459.5 562.833,457.5 563.5,455.5 Z"/></g>
<g><path style="opacity:1" fill="#c6e6ef" d="M 763.5,476.5 C 766.345,486.716 767.012,497.05 765.5,507.5C 765.614,497.107 764.948,486.773 763.5,476.5 Z"/></g>
<g><path style="opacity:1" fill="#49a5c2" d="M 235.5,449.5 C 243.133,475.974 259.8,494.474 285.5,505C 306.991,510.773 327.658,518.606 347.5,528.5C 348.446,530.132 349.446,531.799 350.5,533.5C 348.807,534.228 347.307,535.228 346,536.5C 340.289,534.32 334.455,533.654 328.5,534.5C 313.74,528.622 299.073,522.455 284.5,516C 272.365,511.969 260.365,507.635 248.5,503C 235.199,493.594 227.033,480.761 224,464.5C 222.142,457.635 221.308,450.635 221.5,443.5C 221.318,437.914 221.985,432.58 223.5,427.5C 224.429,426.064 225.595,424.731 227,423.5C 227.506,419.311 228.673,415.311 230.5,411.5C 230.833,412 231.167,412.5 231.5,413C 231.38,414.798 231.047,416.631 230.5,418.5C 230.556,419.737 231.056,420.737 232,421.5C 232.333,429.167 232.667,436.833 233,444.5C 233.985,446.175 234.819,447.842 235.5,449.5 Z"/></g>
<g><path style="opacity:1" fill="#52a8c3" d="M 635.5,545.5 C 635.802,548.059 635.468,550.393 634.5,552.5C 630.952,531.497 622.286,512.997 608.5,497C 609.922,491.478 611.422,485.978 613,480.5C 614,479.167 615,479.167 616,480.5C 625.432,501.295 631.932,522.962 635.5,545.5 Z"/></g>
<g><path style="opacity:1" fill="#86b8c6" d="M 712.5,516.5 C 711.662,516.842 711.328,517.508 711.5,518.5C 711.167,518.5 710.833,518.5 710.5,518.5C 708.828,513.345 709.494,512.678 712.5,516.5 Z"/></g>
<g><path style="opacity:1" fill="#cae8f1" d="M 710.5,518.5 C 710.833,518.5 711.167,518.5 711.5,518.5C 711.993,520.806 712.326,523.139 712.5,525.5C 711.076,523.485 710.41,521.152 710.5,518.5 Z"/></g>
<g><path style="opacity:1" fill="#abd1df" d="M 745.5,518.5 C 746.167,520.833 746.833,523.167 747.5,525.5C 747.631,526.376 747.298,527.043 746.5,527.5C 745.516,524.572 745.183,521.572 745.5,518.5 Z"/></g>
<g><path style="opacity:1" fill="#e0f5f9" d="M 357.5,525.5 C 359.896,529.52 361.396,533.853 362,538.5C 358.6,535.586 355.1,532.92 351.5,530.5C 356.368,532.645 358.368,530.979 357.5,525.5 Z"/></g>
<g><path style="opacity:1" fill="#55a8c6" d="M 271.5,544.5 C 267.814,544.13 266.814,545.463 268.5,548.5C 255.587,544.52 242.587,540.687 229.5,537C 221.844,534.018 215.511,529.351 210.5,523C 230.45,531.238 250.783,538.405 271.5,544.5 Z"/></g>
<g><path style="opacity:1" fill="#d4eef4" d="M 787.5,512.5 C 787.82,519.738 787.153,526.738 785.5,533.5C 785.768,526.317 786.435,519.317 787.5,512.5 Z"/></g>
<g><path style="opacity:1" fill="#49a4c1" d="M 712.5,516.5 C 724.806,533.407 731.806,552.407 733.5,573.5C 736.184,570.131 738.351,566.464 740,562.5C 736.612,578.826 731.112,594.493 723.5,609.5C 722.778,609.082 722.278,608.416 722,607.5C 720.252,609.135 719.085,611.135 718.5,613.5C 718.646,612.024 717.813,610.691 716,609.5C 715.228,609.645 714.561,609.978 714,610.5C 714.363,606.199 714.363,601.866 714,597.5C 713.15,595.99 712.317,594.49 711.5,593C 712.872,589.974 713.538,586.807 713.5,583.5C 714.414,573.187 715.08,562.854 715.5,552.5C 715.69,543.322 714.69,534.322 712.5,525.5C 712.326,523.139 711.993,520.806 711.5,518.5C 711.328,517.508 711.662,516.842 712.5,516.5 Z"/></g>
<g><path style="opacity:1" fill="#f9fcfc" d="M 273.5,549.5 C 294.091,558.795 313.091,570.628 330.5,585C 346.539,599.374 362.872,613.374 379.5,627C 387.783,633.119 396.45,638.619 405.5,643.5C 400.36,644.488 395.026,644.821 389.5,644.5C 338.335,637.993 301.335,611.66 278.5,565.5C 275.899,560.525 274.232,555.191 273.5,549.5 Z"/></g>
<g><path style="opacity:1" fill="#65aabe" d="M 268.5,548.5 C 270.415,548.216 272.081,548.549 273.5,549.5C 274.232,555.191 275.899,560.525 278.5,565.5C 277.609,564.89 276.609,564.557 275.5,564.5C 273.918,559.599 272.584,554.599 271.5,549.5C 270.209,549.737 269.209,549.404 268.5,548.5 Z"/></g>
<g><path style="opacity:1" fill="#bfe4eb" d="M 682.5,559.5 C 682.277,563.162 681.277,566.495 679.5,569.5C 679.723,565.838 680.723,562.505 682.5,559.5 Z"/></g>
<g><path style="opacity:1" fill="#d5eef4" d="M 781.5,561.5 C 781.224,567.212 779.89,572.545 777.5,577.5C 778.416,571.949 779.75,566.615 781.5,561.5 Z"/></g>
<g><path style="opacity:1" fill="#c1e4ed" d="M 777.5,577.5 C 777.59,580.152 776.924,582.485 775.5,584.5C 775.41,581.848 776.076,579.515 777.5,577.5 Z"/></g>
<g><path style="opacity:1" fill="#86c0d1" d="M 749.5,612.5 C 749.59,615.152 748.924,617.485 747.5,619.5C 747.41,616.848 748.076,614.515 749.5,612.5 Z"/></g>
<g><path style="opacity:1" fill="#4ea7c3" d="M 713.5,583.5 C 713.538,586.807 712.872,589.974 711.5,593C 712.317,594.49 713.15,595.99 714,597.5C 714.363,601.866 714.363,606.199 714,610.5C 714.561,609.978 715.228,609.645 716,609.5C 717.813,610.691 718.646,612.024 718.5,613.5C 719.085,611.135 720.252,609.135 722,607.5C 722.278,608.416 722.778,609.082 723.5,609.5C 710.928,630.306 698.095,650.973 685,671.5C 665.325,701.505 639.159,724.005 606.5,739C 602.347,741.079 598.014,742.579 593.5,743.5C 593.585,742.005 592.919,741.005 591.5,740.5C 589.929,741.309 588.262,741.643 586.5,741.5C 653.514,708.872 695.847,656.205 713.5,583.5 Z"/></g>
<g><path style="opacity:1" fill="#57a5b7" d="M 641.5,665.5 C 642.044,661.36 641.044,660.693 638.5,663.5C 643.413,654.737 648.58,646.07 654,637.5C 650.669,647.165 646.502,656.499 641.5,665.5 Z"/></g>
<g><path style="opacity:1" fill="#99c0cd" d="M 738.5,654.5 C 738.263,655.791 738.596,656.791 739.5,657.5C 738.928,658.973 738.095,660.307 737,661.5C 736.725,658.942 737.225,656.608 738.5,654.5 Z"/></g>
<g><path style="opacity:1" fill="#4ba6c2" d="M 641.5,665.5 C 625.949,694.909 605.616,720.742 580.5,743C 582.506,742.85 584.506,742.35 586.5,741.5C 588.262,741.643 589.929,741.309 591.5,740.5C 592.919,741.005 593.585,742.005 593.5,743.5C 582.245,748.139 570.579,751.805 558.5,754.5C 549.031,755.859 539.698,757.192 530.5,758.5C 519.654,758.828 508.987,758.494 498.5,757.5C 498.389,756.883 498.056,756.383 497.5,756C 504.408,755.422 511.074,754.256 517.5,752.5C 535.84,748.337 552.84,740.837 568.5,730C 588.93,712.907 608.763,695.074 628,676.5C 631.04,671.731 634.54,667.397 638.5,663.5C 641.044,660.693 642.044,661.36 641.5,665.5 Z"/></g>
<g><path style="opacity:1" fill="#49a5c2" d="M 633.5,401.5 C 642.599,437.706 661.766,467.372 691,490.5C 691.782,513.964 688.949,536.964 682.5,559.5C 680.723,562.505 679.723,565.838 679.5,569.5C 672.146,591.044 663.313,612.044 653,632.5C 649.24,637.683 645.24,642.683 641,647.5C 635.167,652.667 629.333,657.833 623.5,663C 609.219,672.948 595.219,683.281 581.5,694C 566.508,710.004 549.508,723.337 530.5,734C 523.787,735.739 517.12,737.572 510.5,739.5C 502.319,740.883 494.319,742.55 486.5,744.5C 479.744,746.189 473.077,748.189 466.5,750.5C 464.326,750.75 462.659,751.75 461.5,753.5C 455.608,755.129 449.941,757.129 444.5,759.5C 440.348,759.996 436.348,760.996 432.5,762.5C 417.62,765.052 402.62,766.052 387.5,765.5C 377.639,764.728 367.972,763.061 358.5,760.5C 356.485,759.076 354.152,758.41 351.5,758.5C 312.305,746.769 282.471,723.435 262,688.5C 308.548,734.277 364.381,752.944 429.5,744.5C 434.393,745.161 438.726,744.161 442.5,741.5C 451.402,738.755 460.068,735.422 468.5,731.5C 469.376,731.631 470.043,731.298 470.5,730.5C 468.257,729.526 465.924,729.192 463.5,729.5C 379.659,723.51 321.492,681.844 289,604.5C 283.624,591.425 279.124,578.091 275.5,564.5C 276.609,564.557 277.609,564.89 278.5,565.5C 301.335,611.66 338.335,637.993 389.5,644.5C 395.013,645.816 400.68,645.816 406.5,644.5C 406.376,643.893 406.043,643.56 405.5,643.5C 396.45,638.619 387.783,633.119 379.5,627C 362.872,613.374 346.539,599.374 330.5,585C 313.091,570.628 294.091,558.795 273.5,549.5C 272.081,548.549 270.415,548.216 268.5,548.5C 266.814,545.463 267.814,544.13 271.5,544.5C 317.047,553.259 354.047,575.759 382.5,612C 389.794,617.626 396.794,623.626 403.5,630C 417.855,642.681 434.188,652.014 452.5,658C 472.352,661.596 492.019,660.762 511.5,655.5C 514.716,655.655 517.383,654.655 519.5,652.5C 549.189,641.889 571.356,622.555 586,594.5C 591.177,583.265 592.51,571.598 590,559.5C 589.261,557.779 588.427,556.113 587.5,554.5C 583.071,561.701 578.405,568.701 573.5,575.5C 571.564,574.571 569.897,573.237 568.5,571.5C 569.32,569.889 570.654,569.222 572.5,569.5C 572.517,567.435 572.85,565.435 573.5,563.5C 581.227,553.776 588.56,543.776 595.5,533.5C 610.941,546.979 617.441,563.979 615,584.5C 610.956,598.589 604.29,611.256 595,622.5C 578.328,639.5 559.161,653 537.5,663C 509.888,674.477 481.554,683.644 452.5,690.5C 443.055,692.532 433.722,694.532 424.5,696.5C 417.51,696.999 410.51,697.332 403.5,697.5C 393.494,697.334 383.494,697.5 373.5,698C 374.244,699.039 375.244,699.539 376.5,699.5C 407.501,718.498 441.168,725.998 477.5,722C 560.682,714.964 612.349,671.13 632.5,590.5C 633.79,589.942 634.623,588.942 635,587.5C 635.547,580.821 636.213,574.155 637,567.5C 636.871,573.916 637.705,579.916 639.5,585.5C 640.485,589.634 640.818,593.968 640.5,598.5C 640.334,605.175 640.5,611.842 641,618.5C 641.717,617.956 642.217,617.289 642.5,616.5C 655.606,599.82 663.44,580.82 666,559.5C 669.508,536.29 667.508,513.624 660,491.5C 653.907,479.64 646.574,468.64 638,458.5C 628.34,441.865 625.173,424.198 628.5,405.5C 629.793,404.158 630.626,402.491 631,400.5C 631.671,401.252 632.504,401.586 633.5,401.5 Z"/></g>
<g><path style="opacity:1" fill="#7fbdd0" d="M 403.5,697.5 C 394.5,698.167 385.5,698.833 376.5,699.5C 375.244,699.539 374.244,699.039 373.5,698C 383.494,697.5 393.494,697.334 403.5,697.5 Z"/></g>
<g><path style="opacity:1" fill="#e5f7fb" d="M 452.5,690.5 C 447.509,693.188 442.176,695.022 436.5,696C 432.514,696.499 428.514,696.666 424.5,696.5C 433.722,694.532 443.055,692.532 452.5,690.5 Z"/></g>
<g><path style="opacity:1" fill="#85bfd5" d="M 466.5,674.5 C 473.167,674.5 479.833,674.5 486.5,674.5C 486.5,675.5 486.5,676.5 486.5,677.5C 485.167,677.5 483.833,677.5 482.5,677.5C 483.263,676.732 484.263,676.232 485.5,676C 478.987,675.828 472.653,675.328 466.5,674.5 Z"/></g>
<g><path style="opacity:1" fill="#7fbed0" d="M 519.5,652.5 C 517.383,654.655 514.716,655.655 511.5,655.5C 513.936,654.129 516.603,653.129 519.5,652.5 Z"/></g>
<g><path style="opacity:1" fill="#cae8f3" d="M 405.5,643.5 C 406.043,643.56 406.376,643.893 406.5,644.5C 400.68,645.816 395.013,645.816 389.5,644.5C 395.026,644.821 400.36,644.488 405.5,643.5 Z"/></g>
<g><path style="opacity:1" fill="#f9fcfc" d="M 466.5,674.5 C 472.653,675.328 478.987,675.828 485.5,676C 484.263,676.232 483.263,676.732 482.5,677.5C 440.896,688.109 399.896,686.276 359.5,672C 336.412,661.896 318.079,646.729 304.5,626.5C 318.67,631.167 333.003,635.334 347.5,639C 378.844,649.67 410.178,660.337 441.5,671C 449.729,672.961 458.063,674.128 466.5,674.5 Z"/></g>
<g><path style="opacity:1" fill="#a2c9d6" d="M 503.5,615.5 C 503.5,616.167 503.833,616.5 504.5,616.5C 498.853,619.081 492.853,620.748 486.5,621.5C 482.833,620.833 479.167,620.167 475.5,619.5C 485.175,620.236 494.508,618.903 503.5,615.5 Z"/></g>
<g><path style="opacity:1" fill="#84b7c9" d="M 457.5,616.5 C 463.256,618.746 469.256,619.746 475.5,619.5C 479.167,620.167 482.833,620.833 486.5,621.5C 475.727,622.339 465.394,621.005 455.5,617.5C 456.492,617.672 457.158,617.338 457.5,616.5 Z"/></g>
<g><path style="opacity:1" fill="#b1d8e2" d="M 640.5,598.5 C 641.167,604.5 641.833,610.5 642.5,616.5C 642.217,617.289 641.717,617.956 641,618.5C 640.5,611.842 640.334,605.175 640.5,598.5 Z"/></g>
<g><path style="opacity:1" fill="#4da7c1" d="M 573.5,563.5 C 572.85,565.435 572.517,567.435 572.5,569.5C 570.654,569.222 569.32,569.889 568.5,571.5C 569.897,573.237 571.564,574.571 573.5,575.5C 555.66,597.596 532.66,611.263 504.5,616.5C 503.833,616.5 503.5,616.167 503.5,615.5C 530.528,603.138 553.862,585.805 573.5,563.5 Z"/></g>
<g><path style="opacity:1" fill="#58a4bc" d="M 637.5,559.5 C 638.915,567.961 639.581,576.628 639.5,585.5C 637.705,579.916 636.871,573.916 637,567.5C 636.213,574.155 635.547,580.821 635,587.5C 634.623,588.942 633.79,589.942 632.5,590.5C 633.426,585.537 634.092,580.537 634.5,575.5C 635.329,568.345 635.829,561.011 636,553.5C 636.191,555.708 636.691,557.708 637.5,559.5 Z"/></g>
<g><path style="opacity:1" fill="#97ccd8" d="M 635.5,545.5 C 636.972,549.919 637.638,554.586 637.5,559.5C 636.691,557.708 636.191,555.708 636,553.5C 635.829,561.011 635.329,568.345 634.5,575.5C 634.5,567.833 634.5,560.167 634.5,552.5C 635.468,550.393 635.802,548.059 635.5,545.5 Z"/></g>
<g><path style="opacity:1" fill="#c7e6f2" d="M 463.5,729.5 C 465.924,729.192 468.257,729.526 470.5,730.5C 470.043,731.298 469.376,731.631 468.5,731.5C 466.833,730.833 465.167,730.167 463.5,729.5 Z"/></g>
<g><path style="opacity:1" fill="#dff2f7" d="M 510.5,739.5 C 510.082,740.222 509.416,740.722 508.5,741C 509.167,741.333 509.833,741.667 510.5,742C 502.524,743.163 494.524,743.997 486.5,744.5C 494.319,742.55 502.319,740.883 510.5,739.5 Z"/></g>
<g><path style="opacity:1" fill="#72b6ca" d="M 442.5,741.5 C 438.726,744.161 434.393,745.161 429.5,744.5C 433.575,742.882 437.908,741.882 442.5,741.5 Z"/></g>
<g><path style="opacity:1" fill="#cae3ed" d="M 466.5,750.5 C 468.305,752.197 470.639,753.03 473.5,753C 483.161,753.5 492.828,753.666 502.5,753.5C 494.167,754.167 485.833,754.833 477.5,755.5C 472.18,754.761 466.846,754.094 461.5,753.5C 462.659,751.75 464.326,750.75 466.5,750.5 Z"/></g>
<g><path style="opacity:1" fill="#66aec9" d="M 517.5,752.5 C 511.074,754.256 504.408,755.422 497.5,756C 498.056,756.383 498.389,756.883 498.5,757.5C 491.443,757.379 484.443,756.712 477.5,755.5C 485.833,754.833 494.167,754.167 502.5,753.5C 507.493,753.084 512.493,752.751 517.5,752.5 Z"/></g>
<g><path style="opacity:1" fill="#d9f0f7" d="M 461.5,753.5 C 461.047,754.458 460.381,755.292 459.5,756C 454.507,757.277 449.507,758.444 444.5,759.5C 449.941,757.129 455.608,755.129 461.5,753.5 Z"/></g>
<g><path style="opacity:1" fill="#e3f6fa" d="M 558.5,754.5 C 558.389,755.117 558.056,755.617 557.5,756C 548.664,758.159 539.664,758.992 530.5,758.5C 539.698,757.192 549.031,755.859 558.5,754.5 Z"/></g>
<g><path style="opacity:1" fill="#85bbcd" d="M 351.5,758.5 C 354.152,758.41 356.485,759.076 358.5,760.5C 355.848,760.59 353.515,759.924 351.5,758.5 Z"/></g>
<g><path style="opacity:1" fill="#e1f5fa" d="M 432.5,762.5 C 429.313,763.896 425.98,765.063 422.5,766C 410.659,766.826 398.993,766.659 387.5,765.5C 402.62,766.052 417.62,765.052 432.5,762.5 Z"/></g>
</svg>
