<svg xmlns="http://www.w3.org/2000/svg" xmlns:xlink="http://www.w3.org/1999/xlink" width="375" viewBox="0 0 375 375" height="375" version="1.0"><defs><clipPath id="a"><path d="M 43 264 L 332 264 L 332 371.835938 L 43 371.835938 Z M 43 264"/></clipPath><clipPath id="b"><path d="M 16 2.835938 L 359 2.835938 L 359 352 L 16 352 Z M 16 2.835938"/></clipPath><clipPath id="c"><path d="M 328.632812 161.523438 L 187.492188 2.835938 L 46.492188 161.542969 C 13.210938 198.996094 6.871094 256.835938 31.234375 301.992188 C 38.613281 315.679688 46.839844 327.382812 53.550781 336.015625 C 54.125 336.757812 54.699219 337.484375 55.253906 338.1875 C 59.75 343.851562 63.414062 347.960938 65.429688 350.152344 C 66.25 351.046875 66.796875 351.621094 67.03125 351.855469 C 66.75 351.515625 66.449219 351.160156 66.15625 350.820312 C 55.09375 337.378906 45.457031 314.84375 44.84375 297.734375 C 44.476562 287.507812 45.472656 277.367188 47.839844 267.691406 C 47.894531 267.425781 47.960938 267.171875 48.027344 266.910156 C 50.855469 255.660156 55.519531 245.039062 62 235.578125 L 187.578125 52.179688 L 313.152344 235.578125 C 319.769531 245.238281 324.488281 256.121094 327.285156 267.613281 C 329.660156 277.320312 330.667969 287.480469 330.300781 297.734375 C 329.679688 315.277344 319.558594 338.535156 308.140625 351.828125 C 308.113281 351.863281 308.074219 351.902344 308.046875 351.941406 C 308.09375 351.902344 308.160156 351.828125 308.253906 351.734375 C 309.429688 350.511719 314.640625 344.960938 321.445312 336.242188 C 321.445312 336.230469 321.445312 336.230469 321.453125 336.222656 C 328.4375 327.257812 337.078125 314.945312 344.71875 300.515625 C 368.453125 255.667969 361.539062 198.519531 328.632812 161.523438 Z M 328.632812 161.523438"/></clipPath><linearGradient x1="181.634" gradientTransform="matrix(.94227 0 0 .9406 16.49 2.834)" y1="0" x2="181.634" gradientUnits="userSpaceOnUse" y2="371.15" xlink:type="simple" xlink:actuate="onLoad" id="d" xlink:show="other"><stop stop-color="#1499CB" offset="0"/><stop stop-color="#1499CB" offset=".031"/><stop stop-color="#149ACB" offset=".039"/><stop stop-color="#149BCB" offset=".047"/><stop stop-color="#159CCB" offset=".055"/><stop stop-color="#159CCB" offset=".063"/><stop stop-color="#159DCC" offset=".07"/><stop stop-color="#159ECC" offset=".078"/><stop stop-color="#159ECC" offset=".086"/><stop stop-color="#169FCC" offset=".094"/><stop stop-color="#16A0CC" offset=".102"/><stop stop-color="#16A0CC" offset=".109"/><stop stop-color="#16A1CC" offset=".117"/><stop stop-color="#16A2CC" offset=".125"/><stop stop-color="#16A3CC" offset=".133"/><stop stop-color="#17A3CC" offset=".141"/><stop stop-color="#17A4CC" offset=".148"/><stop stop-color="#17A5CD" offset=".156"/><stop stop-color="#17A5CD" offset=".164"/><stop stop-color="#17A6CD" offset=".172"/><stop stop-color="#18A7CD" offset=".18"/><stop stop-color="#18A7CD" offset=".188"/><stop stop-color="#18A8CD" offset=".195"/><stop stop-color="#18A9CD" offset=".203"/><stop stop-color="#18A9CD" offset=".211"/><stop stop-color="#18AACD" offset=".219"/><stop stop-color="#19ABCD" offset=".227"/><stop stop-color="#19ABCE" offset=".234"/><stop stop-color="#19ACCE" offset=".242"/><stop stop-color="#19ADCE" offset=".25"/><stop stop-color="#19AECE" offset=".258"/><stop stop-color="#1AAECE" offset=".266"/><stop stop-color="#1AAFCE" offset=".273"/><stop stop-color="#1AB0CE" offset=".281"/><stop stop-color="#1AB0CE" offset=".289"/><stop stop-color="#1AB1CE" offset=".297"/><stop stop-color="#1AB2CE" offset=".305"/><stop stop-color="#1BB2CE" offset=".313"/><stop stop-color="#1BB3CF" offset=".32"/><stop stop-color="#1BB4CF" offset=".328"/><stop stop-color="#1BB4CF" offset=".336"/><stop stop-color="#1BB5CF" offset=".344"/><stop stop-color="#1CB6CF" offset=".352"/><stop stop-color="#1CB6CF" offset=".359"/><stop stop-color="#1CB7CF" offset=".367"/><stop stop-color="#1CB8CF" offset=".375"/><stop stop-color="#1CB9CF" offset=".383"/><stop stop-color="#1CB9CF" offset=".391"/><stop stop-color="#1DBAD0" offset=".398"/><stop stop-color="#1DBBD0" offset=".406"/><stop stop-color="#1DBBD0" offset=".414"/><stop stop-color="#1DBCD0" offset=".422"/><stop stop-color="#1DBDD0" offset=".43"/><stop stop-color="#1EBDD0" offset=".438"/><stop stop-color="#1EBED0" offset=".445"/><stop stop-color="#1EBFD0" offset=".453"/><stop stop-color="#1EBFD0" offset=".461"/><stop stop-color="#1EC0D0" offset=".469"/><stop stop-color="#1FC1D0" offset=".477"/><stop stop-color="#1FC1D1" offset=".484"/><stop stop-color="#1FC2D1" offset=".492"/><stop stop-color="#1FC3D1" offset=".5"/><stop stop-color="#1FC4D1" offset=".508"/><stop stop-color="#1FC4D1" offset=".516"/><stop stop-color="#20C5D1" offset=".523"/><stop stop-color="#20C6D1" offset=".531"/><stop stop-color="#20C6D1" offset=".539"/><stop stop-color="#20C7D1" offset=".547"/><stop stop-color="#20C8D1" offset=".555"/><stop stop-color="#21C8D2" offset=".563"/><stop stop-color="#21C9D2" offset=".57"/><stop stop-color="#21CAD2" offset=".578"/><stop stop-color="#21CAD2" offset=".586"/><stop stop-color="#21CBD2" offset=".594"/><stop stop-color="#21CCD2" offset=".602"/><stop stop-color="#22CCD2" offset=".609"/><stop stop-color="#22CDD2" offset=".617"/><stop stop-color="#22CED2" offset=".625"/><stop stop-color="#22CFD2" offset=".633"/><stop stop-color="#22CFD2" offset=".641"/><stop stop-color="#23D0D3" offset=".648"/><stop stop-color="#23D1D3" offset=".656"/><stop stop-color="#23D1D3" offset=".664"/><stop stop-color="#23D2D3" offset=".672"/><stop stop-color="#23D3D3" offset=".68"/><stop stop-color="#23D3D3" offset=".688"/><stop stop-color="#24D4D3" offset=".695"/><stop stop-color="#24D5D3" offset=".703"/><stop stop-color="#24D5D3" offset=".711"/><stop stop-color="#24D6D3" offset=".719"/><stop stop-color="#24D7D3" offset=".727"/><stop stop-color="#25D7D4" offset=".734"/><stop stop-color="#25D8D4" offset=".742"/><stop stop-color="#25D9D4" offset=".75"/><stop stop-color="#25DAD4" offset=".758"/><stop stop-color="#25DAD4" offset=".766"/><stop stop-color="#25DBD4" offset=".773"/><stop stop-color="#26DCD4" offset=".781"/><stop stop-color="#26DCD4" offset=".789"/><stop stop-color="#26DDD4" offset=".797"/><stop stop-color="#26DED4" offset=".805"/><stop stop-color="#26DED5" offset=".813"/><stop stop-color="#27DFD5" offset=".82"/><stop stop-color="#27E0D5" offset=".828"/><stop stop-color="#27E0D5" offset=".836"/><stop stop-color="#27E1D5" offset=".844"/><stop stop-color="#27E2D5" offset=".852"/><stop stop-color="#28E2D5" offset=".859"/><stop stop-color="#28E3D5" offset=".867"/><stop stop-color="#28E4D5" offset=".875"/><stop stop-color="#28E5D5" offset=".883"/><stop stop-color="#28E5D5" offset=".891"/><stop stop-color="#28E6D6" offset=".898"/><stop stop-color="#29E7D6" offset=".906"/><stop stop-color="#29E7D6" offset=".914"/><stop stop-color="#29E8D6" offset=".922"/><stop stop-color="#29E9D6" offset=".93"/><stop stop-color="#29E9D6" offset=".938"/><stop stop-color="#2AEAD6" offset=".945"/><stop stop-color="#2AEBD6" offset=".953"/><stop stop-color="#2AEBD6" offset=".961"/><stop stop-color="#2AECD6" offset=".969"/><stop stop-color="#2AEDD7" offset=".977"/><stop stop-color="#2AEED7" offset=".984"/><stop stop-color="#2BEED7" offset=".992"/><stop stop-color="#2BEFD7" offset="1"/></linearGradient></defs><g clip-path="url(#a)"><path fill="#1499CB" d="M 327.804688 264.847656 C 327.804688 264.847656 327.691406 265.867188 327.285156 267.605469 C 324.929688 277.894531 312.511719 313.554688 253.554688 314.277344 C 231.875 314.542969 208.882812 314.644531 187.558594 314.65625 C 166.234375 314.644531 143.242188 314.542969 121.5625 314.277344 C 62.746094 313.554688 50.242188 278.066406 47.839844 267.679688 C 47.773438 267.40625 47.714844 267.144531 47.667969 266.898438 C 47.394531 265.59375 47.3125 264.839844 47.3125 264.839844 C 40.074219 297.640625 44.230469 320.316406 53.550781 336.007812 C 54.125 336.75 54.699219 337.472656 55.253906 338.179688 C 59.75 343.839844 63.414062 347.953125 65.429688 350.144531 C 66.25 351.039062 66.796875 351.609375 67.03125 351.847656 C 67.0625 351.875 67.089844 351.902344 67.109375 351.929688 C 90.796875 371.835938 123.890625 371.128906 123.890625 371.128906 L 251.226562 371.128906 C 251.226562 371.128906 284.453125 371.835938 308.140625 351.816406 C 308.179688 351.789062 308.214844 351.753906 308.253906 351.722656 C 309.429688 350.5 314.640625 344.953125 321.445312 336.230469 C 321.445312 336.222656 321.445312 336.222656 321.453125 336.214844 C 330.847656 320.523438 335.070312 297.789062 327.804688 264.847656 Z M 327.804688 264.847656"/></g><g clip-path="url(#b)"><g clip-path="url(#c)"><path fill="url(#d)" d="M 6.871094 2.835938 L 6.871094 351.941406 L 368.453125 351.941406 L 368.453125 2.835938 Z M 6.871094 2.835938"/></g></g><path fill="#1499CB" d="M 168.855469 153.6875 L 206.308594 153.6875 L 206.308594 269.929688 L 168.855469 269.929688 Z M 168.855469 153.6875"/><path fill="#1499CB" d="M 129.355469 230.5 L 129.355469 193.109375 L 245.800781 193.109375 L 245.800781 230.5 Z M 129.355469 230.5"/></svg>